<?xml version="1.0" encoding="UTF-8"?>
<!DOCTYPE svg PUBLIC "-//W3C//DTD SVG 1.1//EN" "http://www.w3.org/Graphics/SVG/1.1/DTD/svg11.dtd">
<svg xmlns="http://www.w3.org/2000/svg" version="1.1" width="175px" height="27px" style="shape-rendering:geometricPrecision; text-rendering:geometricPrecision; image-rendering:optimizeQuality; fill-rule:evenodd; clip-rule:evenodd" xmlns:xlink="http://www.w3.org/1999/xlink">
<g><path style="opacity:0.767" fill="#353233" d="M 115.5,2.5 C 116.833,2.5 118.167,2.5 119.5,2.5C 119.5,4.16667 119.5,5.83333 119.5,7.5C 126.314,7.48996 128.814,10.8233 127,17.5C 125.649,19.0097 123.982,20.0097 122,20.5C 119.888,19.6138 117.722,19.6138 115.5,20.5C 115.5,14.5 115.5,8.5 115.5,2.5 Z M 120.5,11.5 C 121.5,11.5 122.5,11.5 123.5,11.5C 123.884,13.6648 123.217,15.3315 121.5,16.5C 119.296,15.218 118.962,13.5514 120.5,11.5 Z"/></g>
<g><path style="opacity:0.815" fill="#343132" d="M 137.5,2.5 C 138.5,2.5 139.5,2.5 140.5,2.5C 140.5,8.5 140.5,14.5 140.5,20.5C 137.186,20.6186 133.853,20.1186 130.5,19C 127.045,13.4051 128.378,9.57172 134.5,7.5C 135.442,7.60816 136.275,7.94149 137,8.5C 137.495,6.5273 137.662,4.5273 137.5,2.5 Z M 133.5,11.5 C 137.934,12.5583 138.267,14.225 134.5,16.5C 132.296,15.218 131.962,13.5514 133.5,11.5 Z"/></g>
<g><path style="opacity:0.592" fill="#323030" d="M 142.5,2.5 C 143.833,2.5 145.167,2.5 146.5,2.5C 146.5,3.83333 146.5,5.16667 146.5,6.5C 143.5,6.83333 142.167,5.5 142.5,2.5 Z"/></g>
<g><path style="opacity:0.654" fill="#312e2f" d="M 22.5,7.5 C 24.7138,9.5757 26.2138,12.2424 27,15.5C 28.9011,5.50978 31.2344,5.17645 34,14.5C 35.0453,11.8457 36.5453,9.5124 38.5,7.5C 38.8333,8 39.1667,8.5 39.5,9C 38.0685,12.461 36.7352,15.961 35.5,19.5C 34.7261,20.7112 33.8928,20.7112 33,19.5C 32.3333,17.5 31.6667,15.5 31,13.5C 29.8553,15.9258 28.522,18.2591 27,20.5C 24.3605,16.5558 22.8605,12.2225 22.5,7.5 Z"/></g>
<g><path style="opacity:0.643" fill="#322f30" d="M 44.5,7.5 C 46.7131,8.6053 48.8797,8.6053 51,7.5C 51.8275,11.8713 51.6609,16.2047 50.5,20.5C 47.8721,20.4626 45.2054,20.1292 42.5,19.5C 38.7201,14.8207 39.3868,10.8207 44.5,7.5 Z M 43.5,10.5 C 50.2794,11.3378 51.1128,14.0045 46,18.5C 42.4755,16.7302 41.6422,14.0636 43.5,10.5 Z"/></g>
<g><path style="opacity:0.622" fill="#343132" d="M 54.5,7.5 C 56.0447,8.58039 57.5447,8.58039 59,7.5C 60.2798,7.61348 61.1131,8.28014 61.5,9.5C 60.0095,10.2436 58.5095,10.9103 57,11.5C 56.8214,14.5535 56.3214,17.5535 55.5,20.5C 54.5078,16.2172 54.1744,11.8839 54.5,7.5 Z"/></g>
<g><path style="opacity:0.644" fill="#323031" d="M 93.5,7.5 C 95.1347,8.81463 96.8014,8.81463 98.5,7.5C 99.6623,12.467 99.8289,17.467 99,22.5C 97.7009,23.9797 96.0342,24.6464 94,24.5C 92.0271,24.6906 90.5271,24.024 89.5,22.5C 91.0755,21.554 92.7422,21.554 94.5,22.5C 96.0004,22.5472 97.0004,21.8805 97.5,20.5C 89.6445,20.8329 87.1445,17.1662 90,9.5C 91.3024,8.9152 92.469,8.24853 93.5,7.5 Z M 92.5,10.5 C 97.3276,10.3852 98.6609,12.5519 96.5,17C 91.1766,17.1802 89.8433,15.0136 92.5,10.5 Z"/></g>
<g><path style="opacity:0.786" fill="#323030" d="M 105.5,7.5 C 108.424,8.39195 111.258,8.72528 114,8.5C 114.793,12.423 114.626,16.2564 113.5,20C 111.405,19.6811 109.405,19.8477 107.5,20.5C 102.622,19.4169 100.789,16.4169 102,11.5C 102.69,9.64977 103.856,8.31643 105.5,7.5 Z M 106.5,11.5 C 110.934,12.5583 111.267,14.225 107.5,16.5C 105.296,15.218 104.962,13.5514 106.5,11.5 Z"/></g>
<g><path style="opacity:0.645" fill="#343132" d="M 142.5,7.5 C 143.833,7.5 145.167,7.5 146.5,7.5C 146.5,11.8333 146.5,16.1667 146.5,20.5C 145.178,20.67 144.011,20.3366 143,19.5C 142.501,15.5138 142.334,11.5138 142.5,7.5 Z"/></g>
<g><path style="opacity:0.623" fill="#333131" d="M 63.5,7.5 C 65.2371,10.008 66.0704,13.008 66,16.5C 67.6667,17.8333 69.3333,17.8333 71,16.5C 71.1786,13.4465 71.6786,10.4465 72.5,7.5C 73.8333,11.8333 73.8333,16.1667 72.5,20.5C 69.5681,21.0622 66.7347,20.3955 64,18.5C 63.5014,14.8484 63.3347,11.1817 63.5,7.5 Z"/></g>
<g><path style="opacity:0.639" fill="#333031" d="M 76.5,7.5 C 78.3405,8.67327 80.1739,8.67327 82,7.5C 83.4728,7.90307 84.8061,8.56974 86,9.5C 86.8253,13.2113 86.6586,16.878 85.5,20.5C 84.6786,17.5535 84.1786,14.5535 84,11.5C 82.3333,10.1667 80.6667,10.1667 79,11.5C 78.8214,14.5535 78.3214,17.5535 77.5,20.5C 76.5078,16.2172 76.1744,11.8839 76.5,7.5 Z"/></g>
<g><path style="opacity:0.808" fill="#343132" d="M 147.5,16.5 C 148.833,16.5 150.167,16.5 151.5,16.5C 151.5,17.8333 151.5,19.1667 151.5,20.5C 148.5,20.8333 147.167,19.5 147.5,16.5 Z"/></g>
</svg>
